<?xml version="1.0" standalone="no"?>
<!DOCTYPE svg PUBLIC "-//W3C//DTD SVG 20010904//EN"
 "http://www.w3.org/TR/2001/REC-SVG-20010904/DTD/svg10.dtd">
<svg version="1.0" xmlns="http://www.w3.org/2000/svg"
 width="700.000000pt" height="700.000000pt" viewBox="0 0 700.000000 700.000000"
 preserveAspectRatio="xMidYMid meet">
<metadata>
Created by potrace 1.11, written by Peter Selinger 2001-2013
</metadata>
<g transform="translate(0.000000,700.000000) scale(0.100000,-0.100000)"
fill="#000000" stroke="none">
<path d="M5399 6780 c0 -8 0 -236 0 -507 l-1 -492 -35 34 c-20 19 -43 36 -52
36 -9 1 -29 3 -46 4 -38 2 -100 -28 -121 -60 -21 -33 -32 -84 -24 -115 5 -18
0 -34 -19 -60 -20 -28 -1069 -1360 -1118 -1420 -10 -12 -282 -357 -401 -509
-147 -186 -152 -191 -187 -191 -18 0 -40 -3 -49 -6 -15 -6 -16 118 -16 1359
l0 1366 -167 3 c-93 2 -219 2 -280 0 l-113 -3 -2 -907 -3 -907 -34 50 c-53 76
-197 215 -281 270 -184 121 -374 186 -610 210 -48 5 -270 6 -295 1 -11 -2 -47
-7 -80 -11 -32 -4 -66 -8 -75 -10 -527 -109 -909 -469 -1094 -1027 -45 -137
-55 -176 -87 -351 -37 -205 -44 -600 -15 -817 2 -14 6 -50 10 -80 31 -239 99
-466 202 -675 226 -457 616 -739 1099 -793 77 -9 345 -9 410 0 340 44 630 222
852 520 32 42 59 75 61 74 1 -2 4 -104 5 -227 l2 -224 248 -1 247 0 0 953 c0
814 2 952 14 947 8 -3 28 -6 44 -8 32 -2 40 -10 317 -351 66 -81 125 -152 130
-158 6 -7 62 -75 125 -152 63 -77 139 -169 169 -205 30 -36 66 -79 80 -96 14
-18 40 -49 56 -70 25 -31 199 -244 304 -371 57 -69 297 -362 314 -383 151
-187 175 -220 185 -256 23 -80 105 -129 179 -106 20 6 39 10 40 8 5 -4 9 -32
18 -111 25 -220 162 -426 335 -508 103 -48 166 -61 295 -61 286 0 488 138 574
392 24 71 26 92 9 93 -13 1 -134 0 -190 -1 -16 0 -28 -5 -28 -12 0 -22 -51
-113 -83 -149 -75 -85 -183 -125 -309 -116 -156 10 -282 103 -345 252 -30 70
-49 221 -29 228 6 2 239 3 519 2 452 -1 507 1 508 14 4 54 -5 211 -16 292 -22
158 -121 320 -251 409 -174 121 -454 138 -646 40 -74 -38 -78 -41 -154 -118
-84 -84 -162 -238 -180 -352 -3 -19 -7 -36 -8 -38 -2 -1 -19 4 -38 12 -33 14
-76 14 -118 1 -13 -4 -36 18 -94 87 -41 51 -82 100 -89 108 -7 8 -31 38 -53
65 -21 28 -41 52 -44 55 -8 8 -63 74 -97 115 -17 22 -78 97 -135 166 -57 69
-121 148 -143 175 -32 40 -177 215 -254 309 -9 11 -56 70 -106 130 -49 61
-103 126 -120 145 -16 20 -44 54 -62 75 -18 22 -117 144 -221 270 -104 127
-188 232 -186 234 2 2 340 3 753 3 l749 0 39 -30 c21 -17 54 -32 74 -35 40 -5
107 15 120 35 5 7 9 9 9 3 1 -43 33 -211 49 -258 69 -199 201 -333 386 -393
66 -22 99 -27 195 -27 201 -1 340 50 457 169 69 70 135 194 149 279 6 40 14
37 -106 37 -113 0 -120 -1 -120 -14 -1 -44 -95 -173 -153 -211 -76 -50 -217
-68 -316 -42 -159 42 -277 185 -297 357 -3 29 -7 62 -9 74 -2 11 0 25 3 30 4
6 211 10 522 9 l515 0 -2 70 c-4 163 -17 257 -50 355 -90 271 -366 430 -675
388 -272 -37 -476 -249 -529 -552 l-11 -66 -29 21 c-63 45 -164 30 -204 -31
-19 -28 -24 -30 -85 -31 -57 0 -1297 0 -1407 1 l-43 0 121 153 c67 83 133 167
148 186 14 19 53 68 87 110 33 42 213 270 400 506 186 237 344 437 351 445 7
8 85 107 173 220 89 113 169 214 178 225 10 11 58 72 107 135 49 63 98 124
107 134 10 11 18 23 18 28 0 4 12 8 26 8 48 0 105 23 129 52 l24 28 0 -387 c0
-214 0 -395 0 -404 1 -15 52 -17 609 -15 l607 1 2 106 c2 103 2 107 -20 111
-12 2 -230 3 -484 3 l-463 -1 0 871 0 870 -125 0 c-104 0 -125 -2 -126 -15z
m-124 -1070 c3 -5 -1 -10 -9 -10 -9 0 -16 5 -16 10 0 6 4 10 9 10 6 0 13 -4
16 -10z m-3272 -1320 c257 -64 459 -236 597 -510 51 -101 104 -258 126 -374 2
-12 8 -43 13 -71 26 -134 36 -497 19 -656 -7 -57 -14 -96 -44 -249 -13 -66
-79 -242 -121 -323 -110 -213 -266 -367 -455 -451 -231 -102 -529 -92 -763 25
-336 169 -551 538 -604 1034 -9 89 -7 448 4 515 57 370 165 616 358 817 131
137 336 241 509 259 35 3 64 8 66 9 12 10 226 -8 295 -25z m4044 -539 c55 -15
144 -76 183 -126 18 -22 43 -64 56 -93 25 -56 46 -179 32 -188 -7 -4 -269 -6
-671 -4 l-118 0 6 43 c21 143 93 267 192 328 86 53 217 70 320 40z m-2643
-502 c-8 -14 -24 -10 -24 6 0 9 6 12 15 9 8 -4 12 -10 9 -15z m1787 -2 c-13
-13 -26 -3 -16 12 3 6 11 8 17 5 6 -4 6 -10 -1 -17z m864 -1680 c67 -25 98
-45 148 -94 55 -54 102 -145 112 -218 4 -27 9 -58 11 -67 1 -10 -2 -20 -8 -24
-12 -8 -776 -9 -784 -1 -8 8 12 106 36 170 46 123 162 226 275 244 17 3 32 6
34 8 9 9 140 -5 176 -18z m-835 -467 c0 -5 -4 -10 -10 -10 -5 0 -10 5 -10 10
0 6 5 10 10 10 6 0 10 -4 10 -10z"/>
</g>
</svg>
